<svg xmlns="http://www.w3.org/2000/svg" xmlns:xlink="http://www.w3.org/1999/xlink" width="500" zoomAndPan="magnify" viewBox="0 0 375 374.999991" height="500" preserveAspectRatio="xMidYMid meet" version="1.0"><defs><clipPath id="badac97c28"><path d="M 108 107 L 309 107 L 309 359.300781 L 108 359.300781 Z M 108 107 " clip-rule="nonzero"/></clipPath><clipPath id="f1e612baed"><path d="M 14.222656 288 L 73 288 L 73 326 L 14.222656 326 Z M 14.222656 288 " clip-rule="nonzero"/></clipPath><clipPath id="91a9cba023"><path d="M 41 15.800781 L 360.722656 15.800781 L 360.722656 284 L 41 284 Z M 41 15.800781 " clip-rule="nonzero"/></clipPath></defs><rect x="-37.5" width="450" fill="#ffffff" y="-37.499999" height="449.999989" fill-opacity="1"/><rect x="-37.5" width="450" fill="#ffffff" y="-37.499999" height="449.999989" fill-opacity="1"/><g clip-path="url(#badac97c28)"><path fill="#292927" d="M 239.449219 140.441406 L 222.539062 164.4375 L 200.117188 196.261719 L 269.316406 166.253906 L 269.316406 217.601562 C 269.316406 219.761719 269.160156 221.914062 268.847656 224.050781 C 268.535156 226.191406 268.070312 228.292969 267.449219 230.367188 C 266.832031 232.4375 266.066406 234.453125 265.15625 236.410156 C 264.246094 238.371094 263.195312 240.253906 262.011719 242.058594 C 260.824219 243.867188 259.515625 245.578125 258.082031 247.195312 C 256.648438 248.8125 255.105469 250.316406 253.453125 251.707031 C 251.800781 253.097656 250.054688 254.363281 248.21875 255.503906 C 246.382812 256.640625 244.472656 257.640625 242.492188 258.5 L 147.085938 300.257812 C 145.664062 300.878906 144.269531 301.550781 142.894531 302.277344 C 141.523438 303 140.179688 303.773438 138.859375 304.59375 C 137.542969 305.414062 136.257812 306.28125 135.003906 307.195312 C 133.75 308.113281 132.53125 309.070312 131.347656 310.074219 C 130.164062 311.074219 129.015625 312.121094 127.90625 313.207031 C 126.796875 314.292969 125.730469 315.417969 124.703125 316.578125 C 123.675781 317.742188 122.691406 318.941406 121.75 320.175781 C 120.808594 321.410156 119.914062 322.679688 119.0625 323.976562 C 118.214844 325.277344 117.414062 326.605469 116.660156 327.964844 C 115.910156 329.320312 115.207031 330.703125 114.550781 332.113281 C 113.898438 333.519531 113.296875 334.949219 112.75 336.402344 C 112.199219 337.855469 111.703125 339.324219 111.261719 340.8125 C 110.816406 342.300781 110.429688 343.800781 110.09375 345.316406 C 109.761719 346.832031 109.480469 348.359375 109.257812 349.894531 C 109.035156 351.433594 108.867188 352.976562 108.753906 354.523438 C 108.644531 356.070312 108.585938 357.621094 108.585938 359.175781 L 108.585938 359.226562 L 281.199219 283.914062 C 283.183594 283.054688 285.09375 282.054688 286.929688 280.917969 C 288.769531 279.78125 290.511719 278.515625 292.167969 277.121094 C 293.820312 275.730469 295.363281 274.226562 296.800781 272.609375 C 298.234375 270.992188 299.542969 269.28125 300.730469 267.472656 C 301.914062 265.664062 302.964844 263.78125 303.875 261.820312 C 304.789062 259.859375 305.554688 257.84375 306.171875 255.773438 C 306.789062 253.703125 307.253906 251.597656 307.566406 249.457031 C 307.878906 247.316406 308.035156 245.167969 308.035156 243.003906 L 308.035156 107.246094 L 248.492188 133.074219 C 246.675781 133.859375 244.996094 134.875 243.460938 136.128906 C 241.921875 137.378906 240.585938 138.816406 239.449219 140.441406 Z M 239.449219 140.441406 " fill-opacity="1" fill-rule="nonzero"/></g><path fill="#00ce32" d="M 64.925781 214.035156 C 66.421875 214.035156 67.859375 213.738281 69.234375 213.144531 L 96.222656 201.511719 C 96.882812 201.230469 97.507812 200.882812 98.101562 200.476562 C 98.691406 200.070312 99.238281 199.609375 99.742188 199.09375 C 100.242188 198.582031 100.6875 198.023438 101.078125 197.417969 C 101.46875 196.816406 101.800781 196.183594 102.066406 195.515625 C 102.332031 194.847656 102.53125 194.160156 102.660156 193.453125 C 102.792969 192.746094 102.851562 192.035156 102.84375 191.316406 C 102.835938 190.597656 102.753906 189.886719 102.605469 189.183594 C 102.457031 188.480469 102.242188 187.800781 101.957031 187.140625 C 101.671875 186.480469 101.328125 185.851562 100.921875 185.261719 C 100.515625 184.667969 100.054688 184.121094 99.539062 183.621094 C 99.023438 183.117188 98.46875 182.671875 97.863281 182.28125 C 97.261719 181.890625 96.628906 181.558594 95.960938 181.292969 C 95.292969 181.027344 94.605469 180.828125 93.898438 180.699219 C 93.195312 180.566406 92.480469 180.503906 91.765625 180.515625 C 91.046875 180.523438 90.335938 180.605469 89.632812 180.753906 C 88.929688 180.902344 88.25 181.117188 87.589844 181.402344 L 60.601562 193.035156 C 60.027344 193.28125 59.476562 193.574219 58.953125 193.914062 C 58.425781 194.253906 57.933594 194.636719 57.476562 195.0625 C 57.015625 195.488281 56.597656 195.949219 56.21875 196.445312 C 55.835938 196.945312 55.503906 197.46875 55.214844 198.023438 C 54.921875 198.578125 54.683594 199.15625 54.492188 199.75 C 54.300781 200.347656 54.164062 200.953125 54.074219 201.574219 C 53.988281 202.195312 53.957031 202.816406 53.976562 203.441406 C 53.996094 204.066406 54.070312 204.6875 54.195312 205.300781 C 54.320312 205.914062 54.5 206.511719 54.726562 207.09375 C 54.957031 207.675781 55.230469 208.234375 55.558594 208.769531 C 55.882812 209.304688 56.25 209.808594 56.660156 210.277344 C 57.070312 210.75 57.519531 211.183594 58.003906 211.578125 C 58.488281 211.972656 59.003906 212.324219 59.550781 212.632812 C 60.09375 212.9375 60.664062 213.195312 61.253906 213.40625 C 61.839844 213.613281 62.445312 213.773438 63.0625 213.878906 C 63.675781 213.984375 64.296875 214.035156 64.925781 214.035156 Z M 64.925781 214.035156 " fill-opacity="1" fill-rule="nonzero"/><path fill="#00ce32" d="M 92.714844 274.558594 L 84.207031 278.042969 C 83.546875 278.324219 82.917969 278.671875 82.324219 279.078125 C 81.734375 279.484375 81.1875 279.945312 80.683594 280.460938 C 80.183594 280.972656 79.734375 281.53125 79.34375 282.136719 C 78.953125 282.738281 78.621094 283.375 78.355469 284.039062 C 78.089844 284.707031 77.890625 285.394531 77.757812 286.101562 C 77.625 286.808594 77.566406 287.523438 77.574219 288.242188 C 77.585938 288.960938 77.664062 289.671875 77.8125 290.375 C 77.960938 291.078125 78.179688 291.761719 78.460938 292.421875 C 78.746094 293.082031 79.089844 293.707031 79.5 294.300781 C 79.90625 294.894531 80.367188 295.441406 80.882812 295.941406 C 81.394531 296.445312 81.953125 296.890625 82.558594 297.28125 C 83.160156 297.671875 83.796875 298.003906 84.464844 298.269531 C 85.132812 298.535156 85.816406 298.734375 86.523438 298.863281 C 87.230469 298.996094 87.945312 299.054688 88.664062 299.042969 C 89.382812 299.035156 90.09375 298.953125 90.796875 298.804688 C 91.5 298.65625 92.179688 298.4375 92.839844 298.152344 L 101.355469 294.667969 C 102.011719 294.382812 102.636719 294.039062 103.230469 293.628906 C 103.820312 293.222656 104.367188 292.761719 104.867188 292.246094 C 105.367188 291.730469 105.8125 291.171875 106.203125 290.570312 C 106.59375 289.96875 106.921875 289.332031 107.1875 288.664062 C 107.453125 288 107.648438 287.3125 107.78125 286.605469 C 107.910156 285.898438 107.972656 285.1875 107.960938 284.46875 C 107.953125 283.75 107.871094 283.039062 107.722656 282.339844 C 107.574219 281.636719 107.355469 280.957031 107.074219 280.296875 C 106.789062 279.636719 106.445312 279.011719 106.039062 278.417969 C 105.632812 277.828125 105.171875 277.28125 104.65625 276.777344 C 104.144531 276.277344 103.585938 275.832031 102.984375 275.441406 C 102.382812 275.046875 101.746094 274.71875 101.082031 274.453125 C 100.414062 274.1875 99.726562 273.988281 99.023438 273.855469 C 98.316406 273.726562 97.605469 273.664062 96.886719 273.671875 C 96.167969 273.683594 95.457031 273.761719 94.757812 273.910156 C 94.054688 274.058594 93.375 274.273438 92.714844 274.558594 Z M 92.714844 274.558594 " fill-opacity="1" fill-rule="nonzero"/><g clip-path="url(#f1e612baed)"><path fill="#00ce32" d="M 57.394531 289.445312 L 20.84375 304.914062 C 20.183594 305.199219 19.558594 305.546875 18.96875 305.953125 C 18.375 306.359375 17.828125 306.820312 17.328125 307.335938 C 16.828125 307.851562 16.378906 308.410156 15.988281 309.011719 C 15.597656 309.613281 15.269531 310.25 15.003906 310.917969 C 14.738281 311.585938 14.539062 312.273438 14.40625 312.976562 C 14.277344 313.683594 14.214844 314.398438 14.226562 315.117188 C 14.234375 315.835938 14.316406 316.546875 14.464844 317.25 C 14.613281 317.953125 14.832031 318.632812 15.113281 319.292969 C 15.398438 319.953125 15.742188 320.578125 16.148438 321.171875 C 16.558594 321.765625 17.019531 322.3125 17.53125 322.8125 C 18.046875 323.3125 18.605469 323.761719 19.207031 324.152344 C 19.8125 324.542969 20.445312 324.871094 21.113281 325.136719 C 21.78125 325.402344 22.46875 325.601562 23.171875 325.734375 C 23.878906 325.863281 24.59375 325.925781 25.308594 325.914062 C 26.027344 325.90625 26.738281 325.828125 27.441406 325.675781 C 28.144531 325.527344 28.824219 325.3125 29.484375 325.027344 L 66.035156 309.558594 C 66.695312 309.273438 67.320312 308.925781 67.914062 308.519531 C 68.503906 308.113281 69.050781 307.652344 69.550781 307.136719 C 70.054688 306.621094 70.5 306.0625 70.890625 305.460938 C 71.28125 304.859375 71.609375 304.222656 71.875 303.554688 C 72.144531 302.886719 72.339844 302.199219 72.472656 301.496094 C 72.601562 300.789062 72.664062 300.074219 72.652344 299.355469 C 72.644531 298.636719 72.566406 297.925781 72.414062 297.222656 C 72.265625 296.519531 72.050781 295.839844 71.765625 295.179688 C 71.480469 294.519531 71.136719 293.894531 70.730469 293.300781 C 70.324219 292.707031 69.863281 292.160156 69.347656 291.660156 C 68.832031 291.160156 68.273438 290.710938 67.671875 290.320312 C 67.070312 289.929688 66.433594 289.601562 65.765625 289.335938 C 65.101562 289.070312 64.414062 288.871094 63.707031 288.738281 C 63 288.609375 62.289062 288.546875 61.570312 288.558594 C 60.851562 288.566406 60.140625 288.644531 59.4375 288.796875 C 58.734375 288.945312 58.054688 289.160156 57.394531 289.445312 Z M 57.394531 289.445312 " fill-opacity="1" fill-rule="nonzero"/></g><g clip-path="url(#91a9cba023)"><path fill="#00ce32" d="M 360.722656 15.875 C 360.722656 17.429688 360.667969 18.984375 360.554688 20.539062 C 360.441406 22.09375 360.273438 23.640625 360.046875 25.179688 C 359.824219 26.71875 359.542969 28.25 359.207031 29.769531 C 358.871094 31.292969 358.480469 32.796875 358.035156 34.289062 C 357.589844 35.78125 357.089844 37.253906 356.535156 38.710938 C 355.984375 40.164062 355.378906 41.597656 354.722656 43.011719 C 354.066406 44.421875 353.359375 45.808594 352.601562 47.167969 C 351.84375 48.53125 351.039062 49.859375 350.183594 51.160156 C 349.332031 52.464844 348.429688 53.734375 347.484375 54.96875 C 346.539062 56.207031 345.546875 57.40625 344.515625 58.570312 C 343.480469 59.734375 342.40625 60.859375 341.292969 61.945312 C 340.175781 63.03125 339.023438 64.078125 337.832031 65.078125 C 336.644531 66.082031 335.417969 67.039062 334.15625 67.953125 C 332.894531 68.867188 331.605469 69.734375 330.28125 70.550781 C 328.957031 71.371094 327.605469 72.140625 326.226562 72.863281 C 324.847656 73.585938 323.445312 74.253906 322.015625 74.875 L 256.800781 103.167969 L 199.597656 127.976562 C 197.695312 128.800781 195.863281 129.761719 194.101562 130.851562 C 192.339844 131.945312 190.664062 133.160156 189.078125 134.492188 C 187.492188 135.828125 186.011719 137.273438 184.636719 138.824219 C 183.261719 140.375 182.003906 142.015625 180.867188 143.75 C 179.726562 145.484375 178.722656 147.292969 177.847656 149.171875 C 176.972656 151.050781 176.238281 152.984375 175.644531 154.972656 C 175.050781 156.960938 174.605469 158.980469 174.304688 161.03125 C 174.003906 163.082031 173.855469 165.148438 173.855469 167.21875 L 173.855469 230.914062 L 243.054688 200.882812 L 220.886719 232.28125 L 213.136719 243.261719 C 211.003906 246.300781 208.234375 248.5625 204.832031 250.042969 L 135.152344 280.171875 L 135.152344 279.9375 L 127.917969 283.042969 C 127.210938 283.347656 126.480469 283.574219 125.726562 283.722656 C 124.972656 283.875 124.210938 283.941406 123.445312 283.933594 C 122.675781 283.921875 121.914062 283.832031 121.164062 283.660156 C 120.414062 283.488281 119.691406 283.242188 118.996094 282.917969 C 118.296875 282.59375 117.640625 282.203125 117.027344 281.738281 C 116.410156 281.277344 115.851562 280.757812 115.347656 280.175781 C 114.839844 279.597656 114.402344 278.972656 114.027344 278.296875 C 113.65625 277.625 113.355469 276.921875 113.132812 276.1875 C 112.945312 275.535156 112.816406 274.871094 112.75 274.199219 C 112.683594 273.523438 112.675781 272.851562 112.730469 272.175781 C 112.789062 271.5 112.90625 270.835938 113.082031 270.183594 C 113.257812 269.527344 113.496094 268.894531 113.785156 268.285156 C 114.078125 267.675781 114.425781 267.09375 114.824219 266.546875 C 115.222656 266 115.664062 265.492188 116.15625 265.027344 C 116.648438 264.558594 117.175781 264.140625 117.742188 263.773438 C 118.3125 263.402344 118.90625 263.085938 119.53125 262.824219 L 139.253906 254.34375 L 145.339844 251.722656 C 145.957031 251.46875 146.550781 251.15625 147.113281 250.789062 C 147.675781 250.421875 148.199219 250.007812 148.6875 249.542969 C 149.171875 249.082031 149.613281 248.578125 150.007812 248.03125 C 150.398438 247.488281 150.742188 246.914062 151.027344 246.304688 C 151.316406 245.699219 151.546875 245.070312 151.71875 244.421875 C 151.890625 243.773438 152 243.113281 152.050781 242.441406 C 152.101562 241.773438 152.089844 241.101562 152.015625 240.433594 C 151.945312 239.769531 151.808594 239.113281 151.617188 238.46875 C 151.421875 237.824219 151.171875 237.207031 150.863281 236.609375 C 150.554688 236.011719 150.195312 235.449219 149.785156 234.917969 C 149.375 234.386719 148.917969 233.898438 148.414062 233.453125 C 147.914062 233.003906 147.375 232.609375 146.800781 232.261719 C 146.226562 231.914062 145.625 231.621094 144.996094 231.386719 C 144.367188 231.148438 143.722656 230.972656 143.058594 230.855469 C 142.398438 230.738281 141.734375 230.679688 141.0625 230.6875 C 140.390625 230.691406 139.722656 230.757812 139.066406 230.886719 L 56.648438 265.867188 C 55.988281 266.152344 55.308594 266.367188 54.605469 266.519531 C 53.902344 266.667969 53.191406 266.746094 52.476562 266.757812 C 51.757812 266.765625 51.042969 266.707031 50.335938 266.574219 C 49.632812 266.445312 48.945312 266.246094 48.277344 265.980469 C 47.609375 265.714844 46.976562 265.382812 46.371094 264.992188 C 45.769531 264.601562 45.210938 264.15625 44.695312 263.652344 C 44.183594 263.152344 43.722656 262.605469 43.316406 262.015625 C 42.90625 261.421875 42.5625 260.796875 42.277344 260.136719 C 41.996094 259.476562 41.777344 258.792969 41.628906 258.089844 C 41.480469 257.386719 41.398438 256.675781 41.390625 255.957031 C 41.382812 255.238281 41.441406 254.527344 41.574219 253.820312 C 41.703125 253.113281 41.902344 252.425781 42.167969 251.757812 C 42.433594 251.089844 42.761719 250.457031 43.152344 249.851562 C 43.542969 249.25 43.992188 248.691406 44.492188 248.175781 C 44.992188 247.660156 45.539062 247.199219 46.132812 246.792969 C 46.722656 246.386719 47.347656 246.042969 48.007812 245.757812 L 142.183594 205.820312 C 142.246094 205.789062 142.304688 205.777344 142.367188 205.75 L 149.984375 202.480469 C 150.632812 202.1875 151.25 201.839844 151.832031 201.429688 C 152.414062 201.015625 152.953125 200.554688 153.445312 200.039062 C 153.933594 199.523438 154.371094 198.964844 154.753906 198.363281 C 155.136719 197.761719 155.460938 197.128906 155.71875 196.46875 C 155.976562 195.804688 156.171875 195.121094 156.296875 194.417969 C 156.421875 193.71875 156.480469 193.011719 156.46875 192.296875 C 156.457031 191.585938 156.375 190.882812 156.226562 190.183594 C 156.078125 189.488281 155.863281 188.8125 155.582031 188.15625 C 155.300781 187.503906 154.957031 186.882812 154.554688 186.292969 C 154.152344 185.707031 153.699219 185.164062 153.1875 184.664062 C 152.679688 184.164062 152.128906 183.71875 151.53125 183.328125 C 150.9375 182.9375 150.308594 182.605469 149.648438 182.339844 C 148.992188 182.070312 148.3125 181.867188 147.613281 181.730469 C 146.914062 181.597656 146.207031 181.527344 145.496094 181.53125 C 144.78125 181.535156 144.078125 181.605469 143.378906 181.742188 C 142.679688 181.882812 142 182.089844 141.34375 182.363281 L 135.152344 185.027344 L 135.152344 184.996094 L 129.015625 187.621094 C 128.355469 187.90625 127.675781 188.121094 126.972656 188.269531 C 126.273438 188.417969 125.5625 188.496094 124.84375 188.507812 C 124.125 188.515625 123.414062 188.453125 122.707031 188.324219 C 122 188.191406 121.316406 187.992188 120.648438 187.726562 C 119.980469 187.460938 119.347656 187.132812 118.746094 186.742188 C 118.144531 186.347656 117.585938 185.902344 117.070312 185.402344 C 116.558594 184.898438 116.097656 184.351562 115.691406 183.761719 C 115.285156 183.167969 114.9375 182.542969 114.65625 181.882812 C 114.371094 181.222656 114.15625 180.542969 114.007812 179.839844 C 113.855469 179.136719 113.777344 178.425781 113.769531 177.707031 C 113.757812 176.988281 113.820312 176.277344 113.949219 175.570312 C 114.082031 174.863281 114.28125 174.179688 114.546875 173.511719 C 114.8125 172.84375 115.140625 172.207031 115.53125 171.605469 C 115.921875 171.003906 116.367188 170.445312 116.867188 169.929688 C 117.367188 169.414062 117.914062 168.953125 118.507812 168.546875 C 119.097656 168.140625 119.722656 167.796875 120.382812 167.511719 L 147.394531 155.917969 C 147.566406 155.84375 147.738281 155.792969 147.902344 155.730469 L 159.484375 150.746094 C 160.128906 150.457031 160.742188 150.109375 161.324219 149.703125 C 161.902344 149.292969 162.4375 148.835938 162.929688 148.324219 C 163.417969 147.8125 163.855469 147.257812 164.238281 146.660156 C 164.621094 146.0625 164.941406 145.4375 165.203125 144.777344 C 165.464844 144.117188 165.660156 143.4375 165.789062 142.742188 C 165.917969 142.042969 165.976562 141.339844 165.96875 140.632812 C 165.960938 139.925781 165.886719 139.222656 165.742188 138.527344 C 165.597656 137.835938 165.386719 137.160156 165.113281 136.507812 C 164.839844 135.851562 164.503906 135.234375 164.109375 134.644531 C 163.710938 134.054688 163.265625 133.511719 162.761719 133.011719 C 162.261719 132.507812 161.71875 132.0625 161.128906 131.664062 C 160.539062 131.269531 159.917969 130.9375 159.265625 130.660156 C 158.613281 130.386719 157.9375 130.179688 157.246094 130.035156 C 156.550781 129.890625 155.851562 129.816406 155.140625 129.808594 C 154.433594 129.800781 153.730469 129.863281 153.035156 129.992188 C 152.335938 130.121094 151.660156 130.316406 151 130.578125 L 81.195312 160.578125 C 80.535156 160.863281 79.855469 161.078125 79.152344 161.226562 C 78.449219 161.375 77.738281 161.457031 77.019531 161.464844 C 76.300781 161.476562 75.589844 161.414062 74.882812 161.28125 C 74.175781 161.152344 73.492188 160.953125 72.824219 160.6875 C 72.15625 160.421875 71.523438 160.089844 70.917969 159.699219 C 70.316406 159.308594 69.757812 158.863281 69.246094 158.359375 C 68.730469 157.859375 68.269531 157.3125 67.863281 156.71875 C 67.457031 156.128906 67.109375 155.5 66.828125 154.839844 C 66.542969 154.179688 66.328125 153.5 66.179688 152.796875 C 66.027344 152.09375 65.949219 151.382812 65.941406 150.664062 C 65.929688 149.945312 65.992188 149.234375 66.121094 148.527344 C 66.253906 147.820312 66.453125 147.132812 66.71875 146.464844 C 66.984375 145.796875 67.3125 145.164062 67.703125 144.5625 C 68.097656 143.957031 68.542969 143.398438 69.042969 142.886719 C 69.542969 142.371094 70.089844 141.910156 70.683594 141.503906 C 71.273438 141.097656 71.902344 140.75 72.5625 140.46875 L 180.121094 94.226562 Z M 360.722656 15.875 " fill-opacity="1" fill-rule="nonzero"/></g></svg>