<svg xmlns="http://www.w3.org/2000/svg" xmlns:xlink="http://www.w3.org/1999/xlink" width="500" zoomAndPan="magnify" viewBox="0 0 375 374.999991" height="500" preserveAspectRatio="xMidYMid meet" version="1.0"><defs><clipPath id="a713787b2a"><path d="M 110 108 L 306 108 L 306 356.386719 L 110 356.386719 Z M 110 108 " clip-rule="nonzero"/></clipPath><clipPath id="b285eb4aef"><path d="M 17.339844 286 L 75 286 L 75 324 L 17.339844 324 Z M 17.339844 286 " clip-rule="nonzero"/></clipPath><clipPath id="ccf9841bb5"><path d="M 44 18.886719 L 357.839844 18.886719 L 357.839844 283 L 44 283 Z M 44 18.886719 " clip-rule="nonzero"/></clipPath></defs><rect x="-37.5" width="450" fill="#ffffff" y="-37.499999" height="449.999989" fill-opacity="1"/><rect x="-37.5" width="450" fill="#ffffff" y="-37.499999" height="449.999989" fill-opacity="1"/><g clip-path="url(#a713787b2a)"><path fill="#ffd700" d="M 238.542969 141.25 L 221.9375 164.804688 L 199.910156 196.046875 L 267.875 166.589844 L 267.875 217 C 267.875 219.121094 267.722656 221.230469 267.414062 223.332031 C 267.109375 225.429688 266.652344 227.496094 266.042969 229.527344 C 265.4375 231.5625 264.683594 233.539062 263.789062 235.464844 C 262.894531 237.386719 261.867188 239.234375 260.703125 241.007812 C 259.539062 242.785156 258.25 244.464844 256.84375 246.050781 C 255.433594 247.636719 253.917969 249.113281 252.296875 250.480469 C 250.671875 251.847656 248.960938 253.089844 247.15625 254.207031 C 245.351562 255.324219 243.476562 256.304688 241.53125 257.148438 L 147.828125 298.140625 C 146.433594 298.753906 145.0625 299.414062 143.714844 300.125 C 142.363281 300.835938 141.042969 301.59375 139.75 302.398438 C 138.457031 303.207031 137.195312 304.058594 135.964844 304.953125 C 134.730469 305.851562 133.535156 306.792969 132.371094 307.777344 C 131.207031 308.761719 130.082031 309.789062 128.992188 310.855469 C 127.902344 311.921875 126.855469 313.023438 125.84375 314.164062 C 124.835938 315.308594 123.867188 316.484375 122.945312 317.695312 C 122.019531 318.910156 121.140625 320.152344 120.308594 321.429688 C 119.472656 322.703125 118.6875 324.007812 117.949219 325.339844 C 117.207031 326.671875 116.515625 328.03125 115.875 329.414062 C 115.234375 330.796875 114.644531 332.199219 114.105469 333.625 C 113.566406 335.050781 113.078125 336.492188 112.644531 337.953125 C 112.207031 339.414062 111.828125 340.890625 111.5 342.378906 C 111.171875 343.867188 110.898438 345.363281 110.675781 346.871094 C 110.457031 348.382812 110.292969 349.894531 110.183594 351.414062 C 110.070312 352.933594 110.015625 354.457031 110.015625 355.980469 L 110.015625 356.03125 L 279.546875 282.097656 C 281.496094 281.253906 283.371094 280.273438 285.175781 279.15625 C 286.980469 278.039062 288.695312 276.796875 290.320312 275.429688 C 291.941406 274.0625 293.460938 272.585938 294.867188 271 C 296.277344 269.414062 297.566406 267.730469 298.730469 265.957031 C 299.894531 264.183594 300.921875 262.332031 301.820312 260.410156 C 302.714844 258.484375 303.464844 256.503906 304.074219 254.472656 C 304.679688 252.4375 305.136719 250.371094 305.445312 248.269531 C 305.75 246.171875 305.90625 244.058594 305.90625 241.9375 L 305.90625 108.664062 L 247.425781 134.015625 C 245.636719 134.785156 243.992188 135.785156 242.480469 137.015625 C 240.972656 138.246094 239.660156 139.65625 238.542969 141.25 Z M 238.542969 141.25 " fill-opacity="1" fill-rule="nonzero"/></g><path fill="#008000" d="M 67.132812 213.496094 C 68.605469 213.496094 70.015625 213.207031 71.367188 212.621094 L 97.875 201.203125 C 98.523438 200.925781 99.136719 200.585938 99.71875 200.1875 C 100.300781 199.789062 100.835938 199.335938 101.328125 198.832031 C 101.820312 198.324219 102.257812 197.777344 102.644531 197.183594 C 103.027344 196.59375 103.351562 195.96875 103.613281 195.316406 C 103.875 194.660156 104.070312 193.984375 104.199219 193.292969 C 104.324219 192.597656 104.386719 191.898438 104.375 191.191406 C 104.367188 190.488281 104.289062 189.789062 104.144531 189.101562 C 103.996094 188.410156 103.785156 187.742188 103.503906 187.09375 C 103.226562 186.445312 102.886719 185.828125 102.488281 185.25 C 102.089844 184.667969 101.636719 184.128906 101.132812 183.636719 C 100.625 183.144531 100.078125 182.707031 99.484375 182.324219 C 98.894531 181.9375 98.269531 181.617188 97.617188 181.355469 C 96.960938 181.09375 96.285156 180.898438 95.59375 180.769531 C 94.898438 180.640625 94.199219 180.582031 93.496094 180.589844 C 92.789062 180.597656 92.089844 180.675781 91.402344 180.824219 C 90.710938 180.96875 90.042969 181.183594 89.394531 181.460938 L 62.886719 192.878906 C 62.324219 193.121094 61.785156 193.410156 61.269531 193.742188 C 60.753906 194.078125 60.269531 194.453125 59.820312 194.871094 C 59.367188 195.289062 58.957031 195.742188 58.582031 196.230469 C 58.210938 196.71875 57.882812 197.234375 57.597656 197.777344 C 57.3125 198.324219 57.078125 198.886719 56.886719 199.472656 C 56.699219 200.058594 56.566406 200.65625 56.480469 201.261719 C 56.394531 201.871094 56.359375 202.484375 56.382812 203.097656 C 56.402344 203.710938 56.472656 204.320312 56.597656 204.921875 C 56.71875 205.523438 56.894531 206.109375 57.117188 206.679688 C 57.34375 207.253906 57.617188 207.800781 57.933594 208.328125 C 58.253906 208.851562 58.613281 209.347656 59.015625 209.808594 C 59.421875 210.273438 59.859375 210.699219 60.335938 211.085938 C 60.8125 211.472656 61.320312 211.820312 61.855469 212.121094 C 62.390625 212.421875 62.949219 212.671875 63.527344 212.878906 C 64.105469 213.085938 64.699219 213.238281 65.304688 213.34375 C 65.910156 213.445312 66.519531 213.496094 67.132812 213.496094 Z M 67.132812 213.496094 " fill-opacity="1" fill-rule="nonzero"/><path fill="#008000" d="M 94.425781 272.910156 L 86.070312 276.332031 C 85.421875 276.613281 84.808594 276.949219 84.226562 277.347656 C 83.644531 277.75 83.105469 278.199219 82.613281 278.707031 C 82.121094 279.210938 81.679688 279.757812 81.296875 280.351562 C 80.910156 280.941406 80.585938 281.566406 80.324219 282.222656 C 80.0625 282.878906 79.867188 283.550781 79.738281 284.246094 C 79.609375 284.941406 79.550781 285.640625 79.558594 286.347656 C 79.566406 287.050781 79.644531 287.75 79.792969 288.441406 C 79.9375 289.132812 80.152344 289.800781 80.429688 290.449219 C 80.707031 291.097656 81.046875 291.710938 81.449219 292.292969 C 81.847656 292.875 82.300781 293.414062 82.804688 293.90625 C 83.3125 294.398438 83.859375 294.835938 84.453125 295.222656 C 85.042969 295.605469 85.667969 295.929688 86.324219 296.1875 C 86.980469 296.449219 87.65625 296.644531 88.347656 296.773438 C 89.042969 296.902344 89.742188 296.960938 90.449219 296.953125 C 91.15625 296.941406 91.851562 296.863281 92.542969 296.714844 C 93.234375 296.570312 93.902344 296.355469 94.550781 296.078125 L 102.914062 292.65625 C 103.5625 292.375 104.175781 292.035156 104.753906 291.636719 C 105.335938 291.234375 105.871094 290.785156 106.363281 290.277344 C 106.855469 289.773438 107.292969 289.222656 107.675781 288.632812 C 108.058594 288.039062 108.378906 287.417969 108.640625 286.761719 C 108.902344 286.105469 109.097656 285.433594 109.226562 284.738281 C 109.351562 284.046875 109.410156 283.347656 109.402344 282.644531 C 109.394531 281.9375 109.316406 281.242188 109.167969 280.550781 C 109.019531 279.863281 108.808594 279.191406 108.53125 278.546875 C 108.25 277.898438 107.914062 277.285156 107.511719 276.703125 C 107.113281 276.121094 106.664062 275.585938 106.15625 275.09375 C 105.652344 274.601562 105.105469 274.164062 104.511719 273.777344 C 103.921875 273.394531 103.300781 273.070312 102.644531 272.808594 C 101.988281 272.546875 101.316406 272.351562 100.621094 272.222656 C 99.929688 272.097656 99.230469 272.035156 98.527344 272.042969 C 97.820312 272.054688 97.125 272.128906 96.433594 272.277344 C 95.746094 272.421875 95.074219 272.632812 94.425781 272.910156 Z M 94.425781 272.910156 " fill-opacity="1" fill-rule="nonzero"/><g clip-path="url(#b285eb4aef)"><path fill="#008000" d="M 59.738281 287.527344 L 23.84375 302.714844 C 23.195312 302.992188 22.578125 303.332031 21.996094 303.734375 C 21.417969 304.132812 20.878906 304.585938 20.386719 305.089844 C 19.894531 305.597656 19.457031 306.144531 19.074219 306.738281 C 18.6875 307.328125 18.367188 307.953125 18.105469 308.605469 C 17.84375 309.261719 17.648438 309.9375 17.519531 310.628906 C 17.390625 311.324219 17.332031 312.023438 17.339844 312.730469 C 17.351562 313.433594 17.429688 314.132812 17.574219 314.824219 C 17.722656 315.511719 17.933594 316.183594 18.214844 316.828125 C 18.492188 317.476562 18.832031 318.09375 19.230469 318.675781 C 19.628906 319.253906 20.082031 319.792969 20.589844 320.285156 C 21.09375 320.777344 21.644531 321.214844 22.234375 321.597656 C 22.828125 321.984375 23.449219 322.304688 24.105469 322.566406 C 24.761719 322.828125 25.433594 323.023438 26.128906 323.152344 C 26.824219 323.28125 27.523438 323.339844 28.226562 323.332031 C 28.933594 323.320312 29.628906 323.242188 30.320312 323.097656 C 31.011719 322.949219 31.679688 322.738281 32.328125 322.457031 L 68.226562 307.273438 C 68.875 306.992188 69.488281 306.652344 70.070312 306.253906 C 70.652344 305.855469 71.1875 305.402344 71.679688 304.894531 C 72.171875 304.390625 72.609375 303.84375 72.996094 303.25 C 73.378906 302.660156 73.703125 302.035156 73.960938 301.378906 C 74.222656 300.722656 74.417969 300.050781 74.546875 299.355469 C 74.675781 298.664062 74.734375 297.964844 74.726562 297.257812 C 74.714844 296.550781 74.636719 295.855469 74.492188 295.164062 C 74.34375 294.472656 74.132812 293.804688 73.855469 293.15625 C 73.574219 292.507812 73.234375 291.894531 72.835938 291.3125 C 72.4375 290.730469 71.984375 290.195312 71.476562 289.703125 C 70.972656 289.210938 70.425781 288.773438 69.832031 288.386719 C 69.242188 288.003906 68.617188 287.679688 67.960938 287.417969 C 67.308594 287.15625 66.632812 286.964844 65.9375 286.835938 C 65.246094 286.707031 64.546875 286.648438 63.839844 286.65625 C 63.132812 286.664062 62.4375 286.742188 61.746094 286.890625 C 61.054688 287.039062 60.386719 287.25 59.738281 287.527344 Z M 59.738281 287.527344 " fill-opacity="1" fill-rule="nonzero"/></g><g clip-path="url(#ccf9841bb5)"><path fill="#008000" d="M 357.652344 18.960938 C 357.652344 20.488281 357.597656 22.015625 357.484375 23.539062 C 357.375 25.066406 357.210938 26.582031 356.988281 28.097656 C 356.765625 29.609375 356.492188 31.109375 356.160156 32.601562 C 355.832031 34.097656 355.449219 35.574219 355.007812 37.039062 C 354.570312 38.503906 354.082031 39.949219 353.539062 41.378906 C 352.996094 42.808594 352.402344 44.214844 351.757812 45.601562 C 351.113281 46.988281 350.417969 48.347656 349.675781 49.683594 C 348.929688 51.019531 348.140625 52.324219 347.300781 53.601562 C 346.460938 54.882812 345.578125 56.125 344.648438 57.339844 C 343.71875 58.554688 342.746094 59.734375 341.730469 60.875 C 340.71875 62.019531 339.664062 63.125 338.566406 64.191406 C 337.472656 65.257812 336.339844 66.28125 335.171875 67.265625 C 334 68.25 332.796875 69.191406 331.558594 70.085938 C 330.320312 70.984375 329.050781 71.835938 327.753906 72.640625 C 326.453125 73.441406 325.125 74.199219 323.769531 74.90625 C 322.414062 75.617188 321.039062 76.273438 319.636719 76.882812 L 255.582031 104.660156 L 199.402344 129.011719 C 197.535156 129.824219 195.734375 130.765625 194.003906 131.835938 C 192.273438 132.910156 190.628906 134.101562 189.074219 135.410156 C 187.515625 136.722656 186.058594 138.140625 184.707031 139.660156 C 183.355469 141.183594 182.121094 142.796875 181.003906 144.5 C 179.886719 146.199219 178.898438 147.972656 178.039062 149.820312 C 177.183594 151.667969 176.460938 153.566406 175.878906 155.515625 C 175.292969 157.464844 174.855469 159.449219 174.5625 161.464844 C 174.265625 163.476562 174.117188 165.503906 174.117188 167.539062 L 174.117188 230.066406 L 242.082031 200.585938 L 220.3125 231.410156 L 212.699219 242.191406 C 210.605469 245.171875 207.886719 247.394531 204.542969 248.847656 L 136.109375 278.421875 L 136.109375 278.191406 L 129.003906 281.242188 C 128.308594 281.542969 127.59375 281.765625 126.851562 281.910156 C 126.113281 282.058594 125.363281 282.125 124.609375 282.117188 C 123.851562 282.105469 123.109375 282.015625 122.371094 281.847656 C 121.636719 281.679688 120.925781 281.4375 120.238281 281.121094 C 119.554688 280.800781 118.910156 280.417969 118.304688 279.964844 C 117.703125 279.511719 117.152344 279 116.65625 278.429688 C 116.160156 277.859375 115.726562 277.246094 115.363281 276.585938 C 114.996094 275.925781 114.703125 275.234375 114.480469 274.511719 C 114.296875 273.871094 114.171875 273.222656 114.105469 272.558594 C 114.039062 271.898438 114.035156 271.238281 114.089844 270.574219 C 114.144531 269.910156 114.257812 269.257812 114.433594 268.617188 C 114.605469 267.976562 114.835938 267.355469 115.125 266.753906 C 115.410156 266.15625 115.75 265.585938 116.140625 265.050781 C 116.53125 264.511719 116.96875 264.011719 117.453125 263.554688 C 117.933594 263.097656 118.453125 262.6875 119.011719 262.324219 C 119.566406 261.960938 120.152344 261.652344 120.765625 261.394531 L 140.136719 253.070312 L 146.113281 250.496094 C 146.722656 250.246094 147.304688 249.9375 147.855469 249.578125 C 148.410156 249.21875 148.921875 248.8125 149.402344 248.355469 C 149.878906 247.902344 150.3125 247.40625 150.699219 246.871094 C 151.082031 246.339844 151.417969 245.773438 151.699219 245.175781 C 151.984375 244.582031 152.207031 243.964844 152.378906 243.328125 C 152.546875 242.691406 152.65625 242.042969 152.703125 241.382812 C 152.753906 240.726562 152.742188 240.070312 152.671875 239.414062 C 152.601562 238.757812 152.46875 238.117188 152.277344 237.484375 C 152.089844 236.851562 151.84375 236.242188 151.539062 235.65625 C 151.238281 235.070312 150.882812 234.519531 150.480469 233.996094 C 150.074219 233.476562 149.625 232.996094 149.132812 232.558594 C 148.640625 232.121094 148.113281 231.730469 147.546875 231.390625 C 146.984375 231.046875 146.390625 230.761719 145.773438 230.53125 C 145.15625 230.296875 144.523438 230.125 143.875 230.007812 C 143.226562 229.894531 142.570312 229.839844 141.910156 229.84375 C 141.253906 229.851562 140.597656 229.914062 139.949219 230.042969 L 59.007812 264.382812 C 58.359375 264.660156 57.691406 264.875 57 265.019531 C 56.308594 265.167969 55.613281 265.246094 54.90625 265.253906 C 54.203125 265.265625 53.5 265.203125 52.808594 265.074219 C 52.113281 264.949219 51.441406 264.753906 50.785156 264.492188 C 50.128906 264.230469 49.503906 263.90625 48.914062 263.523438 C 48.320312 263.140625 47.773438 262.699219 47.269531 262.207031 C 46.761719 261.714844 46.308594 261.179688 45.910156 260.597656 C 45.511719 260.015625 45.171875 259.402344 44.894531 258.753906 C 44.613281 258.105469 44.402344 257.4375 44.253906 256.746094 C 44.109375 256.054688 44.03125 255.359375 44.019531 254.652344 C 44.011719 253.949219 44.070312 253.246094 44.199219 252.554688 C 44.328125 251.859375 44.523438 251.1875 44.785156 250.53125 C 45.046875 249.875 45.367188 249.25 45.753906 248.660156 C 46.136719 248.066406 46.574219 247.519531 47.066406 247.015625 C 47.558594 246.507812 48.097656 246.054688 48.675781 245.65625 C 49.257812 245.257812 49.875 244.917969 50.523438 244.640625 L 143.011719 205.433594 C 143.074219 205.402344 143.132812 205.386719 143.191406 205.363281 L 150.675781 202.152344 C 151.3125 201.867188 151.917969 201.523438 152.492188 201.121094 C 153.0625 200.71875 153.589844 200.261719 154.074219 199.757812 C 154.554688 199.25 154.984375 198.703125 155.359375 198.113281 C 155.738281 197.523438 156.050781 196.902344 156.308594 196.25 C 156.5625 195.597656 156.75 194.929688 156.875 194.238281 C 157 193.550781 157.054688 192.859375 157.042969 192.160156 C 157.03125 191.457031 156.953125 190.765625 156.804688 190.082031 C 156.660156 189.398438 156.449219 188.734375 156.171875 188.09375 C 155.894531 187.449219 155.558594 186.839844 155.164062 186.261719 C 154.769531 185.6875 154.320312 185.152344 153.824219 184.664062 C 153.324219 184.171875 152.78125 183.734375 152.195312 183.351562 C 151.613281 182.96875 150.996094 182.644531 150.347656 182.378906 C 149.699219 182.117188 149.03125 181.917969 148.34375 181.785156 C 147.660156 181.652344 146.964844 181.585938 146.265625 181.585938 C 145.566406 181.589844 144.875 181.660156 144.1875 181.796875 C 143.5 181.933594 142.835938 182.136719 142.1875 182.402344 L 136.109375 185.019531 L 136.109375 184.988281 L 130.082031 187.566406 C 129.433594 187.84375 128.765625 188.058594 128.074219 188.203125 C 127.386719 188.347656 126.6875 188.425781 125.984375 188.4375 C 125.277344 188.445312 124.578125 188.382812 123.886719 188.253906 C 123.191406 188.125 122.519531 187.933594 121.863281 187.671875 C 121.207031 187.410156 120.585938 187.085938 119.996094 186.703125 C 119.402344 186.316406 118.855469 185.878906 118.351562 185.386719 C 117.84375 184.894531 117.394531 184.359375 116.992188 183.777344 C 116.59375 183.195312 116.253906 182.582031 115.976562 181.933594 C 115.699219 181.285156 115.488281 180.617188 115.339844 179.925781 C 115.191406 179.238281 115.117188 178.539062 115.105469 177.835938 C 115.097656 177.128906 115.15625 176.429688 115.285156 175.738281 C 115.414062 175.042969 115.609375 174.367188 115.867188 173.714844 C 116.128906 173.058594 116.453125 172.4375 116.835938 171.84375 C 117.21875 171.253906 117.660156 170.703125 118.152344 170.199219 C 118.640625 169.695312 119.179688 169.242188 119.757812 168.839844 C 120.339844 168.441406 120.953125 168.101562 121.601562 167.824219 L 148.132812 156.441406 C 148.300781 156.367188 148.46875 156.320312 148.628906 156.257812 L 160.003906 151.367188 C 160.640625 151.082031 161.242188 150.742188 161.8125 150.339844 C 162.382812 149.941406 162.90625 149.488281 163.386719 148.988281 C 163.871094 148.484375 164.296875 147.941406 164.675781 147.355469 C 165.050781 146.769531 165.367188 146.152344 165.621094 145.503906 C 165.878906 144.859375 166.070312 144.191406 166.195312 143.507812 C 166.324219 142.824219 166.382812 142.132812 166.375 141.4375 C 166.367188 140.742188 166.292969 140.054688 166.152344 139.371094 C 166.011719 138.691406 165.804688 138.027344 165.535156 137.386719 C 165.265625 136.746094 164.933594 136.136719 164.546875 135.558594 C 164.160156 134.980469 163.71875 134.445312 163.226562 133.953125 C 162.734375 133.460938 162.199219 133.023438 161.621094 132.632812 C 161.042969 132.246094 160.433594 131.917969 159.792969 131.648438 C 159.148438 131.378906 158.488281 131.171875 157.804688 131.03125 C 157.125 130.890625 156.4375 130.816406 155.738281 130.8125 C 155.042969 130.804688 154.355469 130.863281 153.667969 130.992188 C 152.984375 131.117188 152.320312 131.3125 151.671875 131.566406 L 83.113281 161.019531 C 82.464844 161.296875 81.796875 161.507812 81.105469 161.65625 C 80.417969 161.800781 79.71875 161.878906 79.015625 161.890625 C 78.308594 161.898438 77.609375 161.839844 76.914062 161.710938 C 76.222656 161.582031 75.546875 161.386719 74.890625 161.125 C 74.238281 160.863281 73.613281 160.539062 73.023438 160.15625 C 72.429688 159.773438 71.882812 159.332031 71.378906 158.839844 C 70.871094 158.347656 70.417969 157.8125 70.019531 157.230469 C 69.621094 156.648438 69.28125 156.035156 69.003906 155.386719 C 68.726562 154.738281 68.511719 154.070312 68.367188 153.378906 C 68.21875 152.6875 68.140625 151.992188 68.132812 151.285156 C 68.121094 150.582031 68.183594 149.878906 68.3125 149.1875 C 68.441406 148.492188 68.636719 147.820312 68.894531 147.164062 C 69.15625 146.507812 69.480469 145.886719 69.863281 145.292969 C 70.25 144.703125 70.6875 144.152344 71.179688 143.648438 C 71.671875 143.144531 72.207031 142.691406 72.789062 142.292969 C 73.371094 141.890625 73.988281 141.554688 74.632812 141.273438 L 180.273438 95.882812 Z M 357.652344 18.960938 " fill-opacity="1" fill-rule="nonzero"/></g></svg>